<svg xmlns="http://www.w3.org/2000/svg" viewBox="0 0 300 300"><style>.st2{fill:none;stroke:#fff;stroke-width:5.1314}</style><path fill="#0085ff" d="M285.6 167.1v-34.2l-32.4-4.8a105 105 0 00-14.7-35.5L258 66.2 233.8 42l-26.3 19.5A105 105 0 00172 46.8l-4.8-32.4H133l-4.8 32.4a105 105 0 00-35.5 14.7L66.2 42 42 66.2l19.5 26.3A105 105 0 0046.8 128l-32.4 4.8V167l32.4 4.8a105 105 0 0014.7 35.5L42 233.8 66.2 258l26.3-19.5a105 105 0 0035.5 14.7l4.8 32.4H167l4.8-32.4a105 105 0 0035.5-14.7l26.3 19.5 24.2-24.2-19.5-26.3A105 105 0 00253 172l32.6-4.9z"/><circle cx="150" cy="150" r="90.2" fill="#1e232f" stroke="#fff" stroke-miterlimit="10" stroke-width="5.1"/><path fill="#fff" d="M150 123.1a26.8 26.8 0 100 53.8 26.8 26.8 0 100-53.8zm0 30.9a4 4 0 01-4-4c0-2.2 1.8-4 4-4s4 1.8 4 4a4 4 0 01-4 4z"/><path d="M106.4 165.9a47 47 0 0017 22.2M93.8 170.4a60 60 0 0021.8 28.5M81.2 175a75.5 75.5 0 0026.8 34.9M193.6 134.1a47 47 0 00-17-22.2M206.2 129.6a60 60 0 00-21.8-28.5M218.8 125A75.5 75.5 0 00192 90" class="st2"/></svg>