<svg xmlns="http://www.w3.org/2000/svg" viewBox="0 0 300 100" xml:space="preserve"><defs/><style>.st0{fill:#0085ff}.st1{fill:#fff}.st3{fill:none;stroke:#fff;stroke-width:1.8331;stroke-miterlimit:10}.st4{fill:#000}</style><path d="M101.7 56.5V44.3l-11.6-1.7c-1-4.6-2.8-8.9-5.3-12.7l7-9.4-8.6-8.6-9.4 7a37.6 37.6 0 00-12.7-5.3L59.4 2H47.2l-1.7 11.6c-4.6 1-8.9 2.8-12.7 5.3l-9.4-7-8.6 8.6 7 9.4a37.6 37.6 0 00-5.3 12.7L4.9 44.3v12.2l11.6 1.7c1 4.6 2.8 8.9 5.3 12.7l-7 9.4 8.6 8.6 9.4-7c3.8 2.5 8.1 4.3 12.7 5.3l1.7 11.6h12.2l1.7-11.6c4.6-1 8.9-2.8 12.7-5.3l9.4 7 8.6-8.6-7-9.4c2.5-3.8 4.3-8.1 5.3-12.7l11.6-1.7zM234.1 31.6V14.8h7.4v58.1h-7.4v-.6c-1.2.2-2.4.6-3.7.7-3.5.3-6.4-.9-8.9-3.2a19.7 19.7 0 01-5.5-9.6 30.2 30.2 0 011.2-19.9c1.2-2.8 3-5.3 5.5-7.2 3.2-2.3 6.7-2.8 10.4-1.7l1 .2zm0 20.3V35.2c0-.4-.1-.7-.5-.9a9.5 9.5 0 00-4.1-.9c-1.9 0-3.4.8-4.2 2.6a35.8 35.8 0 00-1.6 8.6c-.2 5.3-.3 10.6.1 16 .1 2 .4 4 1 6 .5 1.5 1.3 2.9 3 3.4 2 .5 3.9.2 5.7-.6.4-.2.5-.4.5-.9l.1-16.6zM253.7 72.8l-8.5.1V30.7h8.5v5.6l1.9-2.2c1.2-1.3 2.5-2.4 4.1-3 7.2-2.4 8.5 6.7 8.2 11.8V73h-8v-.7-30.6c0-1.2-.1-2.4-.3-3.5-.3-1.5-1.2-1.8-2.5-.9-1.3.8-2 2.1-2.8 3.3-.4.7-.6 1.4-.6 2.3v29.9z" class="st0"/><path d="M271.6 72.8v-2.6l6.8-.1c5.7 0 10.6-7.4 6.6-12-3.3-3.7-7.6-6.5-10-10.9-3-4.8-1.7-11.5 3.5-14.1 4.1-2.4 8.8-2.4 13.4-2.3v2.7c-3.7-.2-8 .5-10.1 4a5.7 5.7 0 001.2 7l8.5 8.3c4.5 4 4.1 11.3-.4 15.1-5.3 5.2-12.6 5.3-19.5 4.9z" class="st0"/><circle cx="53.3" cy="50.4" r="32.2" fill="#1e232f" stroke="#fff" stroke-miterlimit="10" stroke-width="1.8"/><path d="M33.2 57.7A21 21 0 0041 67.9M28.7 59.4a26.4 26.4 0 009.5 12.5M68.9 44.8a17 17 0 00-6-7.9M73.4 43.1a21 21 0 00-7.8-10.2M77.9 41.5A26.4 26.4 0 0068.4 29M37.7 56.1a17 17 0 006 7.9" class="st3"/><path d="M182.7 30.7v28.6c0 2.4.3 4.7.6 7.1.3 2.2 1.8 3.5 4.1 3.8h2.6c.3 0 .5-.1.4-.5v-.5-37.6-.8h8.6v43.9c0 2.7-.5 5.2-1.9 7.6a11.8 11.8 0 01-7.5 5.2c-2.1.6-4.2.7-6.4.8h-.3v-2.7h1.4l2.7-.2c1.4-.2 2.3-1 2.6-2.3.4-1.6.6-3.2.7-4.9l.1-4.7v-.4h-3.1A12.6 12.6 0 01175 62.6a27 27 0 01-.7-6.3V31.5c0-.5.1-.7.7-.7h7.1l.6-.1zM156.4 30.7v5.7l.7-.9c1.1-1.4 2.3-2.7 3.8-3.6 1.6-1 3.2-1.4 5.1-.9 1.9.5 2.9 2 3.6 3.7.8 2.1 1.1 4.3 1.1 6.5v31.7h-8v-.7-30.7c0-1.1-.1-2.3-.3-3.4-.3-1.5-1.2-1.8-2.5-1-1.2.8-2 2.1-2.7 3.3-.4.7-.6 1.5-.6 2.3v30.2H148v-.6-40.9c0-.5.1-.7.7-.7h7.7zM211.1 72.9h-8.4V14.8h8.4v58.1zM131.8 30.7l-7.7 42.2h-8.4l-7.6-42.1h7.1c.4 0 .6.1.6.5l6.3 35.3.2.5.9-4.6 4.2-23.1 1.5-8.2c.1-.4.2-.5.6-.5h2.3zM144.1 30.7v42.1h-8.5V30.7h8.5zM139.8 21.9a5.6 5.6 0 01-3.2-1.1 3 3 0 01-.2-4.7 5.2 5.2 0 016.7-.2c1.6 1.4 1.5 3.5-.1 4.9-.9.7-2 1.1-3.2 1.1z" class="st4"/><path d="M53.3 40.8a9.6 9.6 0 100 19.2 9.6 9.6 0 000-19.2zm0 11.1c-.8 0-1.4-.6-1.4-1.4 0-.8.6-1.4 1.4-1.4s1.4.6 1.4 1.4c0 .7-.6 1.4-1.4 1.4z" class="st1"/></svg>