<svg id="Layer_1" data-name="Layer 1" xmlns="http://www.w3.org/2000/svg" viewBox="0 0 2874.35 956"><defs><style>.cls-1{font-size:750px;font-family:StonyIslandNF, StonyIslandNF;}.cls-1,.cls-4{fill:#1f232e;}.cls-2{fill:#0086ff;}.cls-3{opacity:0.2;}.cls-5,.cls-6{fill:#fff;}.cls-5{opacity:0.94;}</style></defs><title>vinyl-fulllogoDARK</title><text class="cls-1" transform="translate(1009.13 695.34)">vinyl<tspan class="cls-2" x="1046.97" y="0">dns</tspan></text><polygon class="cls-2" points="523.81 0 403.33 0 370.27 150.96 556.87 150.96 523.81 0"/><polygon class="cls-2" points="172.39 107.61 87.2 192.8 170.57 322.93 302.52 190.98 172.39 107.61"/><polygon class="cls-2" points="0 432.19 0 552.67 150.96 585.73 150.96 399.13 0 432.19"/><polygon class="cls-2" points="107.61 783.61 192.8 868.8 322.93 785.43 190.98 653.48 107.61 783.61"/><polygon class="cls-2" points="432.19 956 552.67 956 585.73 805.04 399.13 805.04 432.19 956"/><polygon class="cls-2" points="783.61 848.39 868.8 763.2 785.43 633.07 653.48 765.02 783.61 848.39"/><polygon class="cls-2" points="956 523.81 956 403.33 805.04 370.27 805.04 556.87 956 523.81"/><polygon class="cls-2" points="848.39 172.39 763.2 87.2 633.07 170.57 765.02 302.52 848.39 172.39"/><path class="cls-2" d="M494.33,111.67c-209.11,0-378.62,169.52-378.62,378.63S285.22,868.92,494.33,868.92,873,699.41,873,490.3,703.44,111.67,494.33,111.67Zm0,706.32c-181,0-327.69-146.71-327.69-327.69S313.35,162.61,494.33,162.61,822,309.32,822,490.3,675.31,818,494.33,818Z" transform="translate(-16.33 -12.3)"/><g class="cls-3"><path d="M494.33,654.81a164.51,164.51,0,1,1,116.33-48.19A163.39,163.39,0,0,1,494.33,654.81Z" transform="translate(-16.33 -12.3)"/></g><g class="cls-3"><path d="M494.33,624.34a134,134,0,1,1,94.79-39.26A133.16,133.16,0,0,1,494.33,624.34Z" transform="translate(-16.33 -12.3)"/></g><path class="cls-4" d="M494.78,800.59a309.83,309.83,0,1,1,120.84-24.45A308.44,308.44,0,0,1,494.78,800.59Z" transform="translate(-16.33 -12.3)"/><circle class="cls-5" cx="478" cy="478" r="96.81"/><circle class="cls-4" cx="478" cy="478" r="14.32"/><path class="cls-6" d="M733.16,409.61l15.56-4.09A222.67,222.67,0,0,0,645.26,269.2l-8.1,13.87A222.5,222.5,0,0,1,733.16,409.61Z" transform="translate(-16.33 -12.3)"/><path class="cls-6" d="M622.46,308.24,614,322.74a222.4,222.4,0,0,1,73.83,97.33l17.57-3.36C686,374.55,659.46,339.27,622.46,308.24Z" transform="translate(-16.33 -12.3)"/><path class="cls-6" d="M599.24,348l-7.69,14.48a241.24,241.24,0,0,1,49.26,65.76l16.28-2.65C644.16,396.34,624.69,370.35,599.24,348Z" transform="translate(-16.33 -12.3)"/><path class="cls-6" d="M255.5,571l-15.56,4.08A222.7,222.7,0,0,0,343.41,711.4l8.09-13.87A222.54,222.54,0,0,1,255.5,571Z" transform="translate(-16.33 -12.3)"/><path class="cls-6" d="M366.2,672.36l8.47-14.51a222.17,222.17,0,0,1-73.83-97.32l-17.58,3.36C302.64,606.05,329.2,641.33,366.2,672.36Z" transform="translate(-16.33 -12.3)"/><path class="cls-6" d="M389.42,632.58l7.69-14.49a241.65,241.65,0,0,1-49.26-65.76L331.57,555C344.51,584.25,364,610.24,389.42,632.58Z" transform="translate(-16.33 -12.3)"/><path class="cls-6" d="M494.78,159.38C312,159.38,163.86,307.53,163.86,490.3S312,821.22,494.78,821.22,825.71,673.06,825.71,490.3,677.55,159.38,494.78,159.38ZM714.2,709.71a309.83,309.83,0,1,1,66.43-98.58A309.11,309.11,0,0,1,714.2,709.71Z" transform="translate(-16.33 -12.3)"/></svg>